mtllib growthpot.mtl
o Cube
v 0.968750 0.050000 0.812500
v 0.851562 1.777852 0.734375
v 0.968750 1.500000 0.812500
v 0.812500 0.050000 0.031250
v 0.187500 0.050000 0.031250
v 0.265625 1.777852 0.148438
v 0.734375 1.777852 0.148438
v 0.187500 0.050000 0.968750
v 0.812500 0.050000 0.968750
v 0.734375 1.777852 0.851562
v 0.265625 1.777852 0.851562
v 0.812500 1.500000 0.968750
v 0.187500 1.500000 0.968750
v 0.187500 1.500000 0.031250
v 0.812500 1.500000 0.031250
v 0.031250 0.050000 0.187500
v 0.031250 0.050000 0.812500
v 0.148438 1.777852 0.734375
v 0.148438 1.777852 0.265625
v 0.968750 0.050000 0.187500
v 0.851562 1.777852 0.265625
v 0.968750 1.500000 0.187500
v 0.031250 1.500000 0.812500
v 0.031250 1.500000 0.187500
v 0.617188 1.959610 0.382812
v 0.617188 1.959610 0.617188
v 0.382812 1.959610 0.382812
v 0.382812 1.959610 0.617188
v 0.187500 -0.000000 0.187500
v 0.187500 -0.000000 0.812500
v 0.812500 -0.000000 0.187500
v 0.812500 -0.000000 0.812500
vt 0.2934 0.7324
vt 0.2466 0.7324
vt 0.2388 0.6492
vt 0.3012 0.6492
vt 0.4776 0.6492
vt 0.4776 0.2656
vt 0.5399 0.2656
vt 0.5399 0.6492
vt 0.7800 0.2200
vt 0.7786 0.2656
vt 0.7344 0.2214
vt 0.5321 0.7324
vt 0.4853 0.7324
vt 0.7342 0.0451
vt 0.7791 0.0001
vt 0.7805 0.0464
vt 0.2388 0.2656
vt 0.0625 0.6492
vt 0.0625 0.2656
vt 0.7786 0.6492
vt 0.7163 0.6492
vt 0.7163 0.2656
vt 0.7708 0.7324
vt 0.7475 0.8174
vt 0.7241 0.7324
vt 0.6612 0.8116
vt 0.5950 0.8116
vt 0.5620 0.7298
vt 0.6942 0.7298
vt 0.3012 0.2656
vt 0.2168 0.7298
vt 0.0845 0.7298
vt 0.9997 0.0443
vt 0.9999 0.2206
vt 0.9536 0.2193
vt 0.9541 0.0456
vt 0.9554 0.0001
vt 0.1837 0.8116
vt 0.1176 0.8116
vt 0.8999 0.8116
vt 0.8999 0.8777
vt 0.8338 0.8777
vt 0.8338 0.8116
vt 0.9330 0.7298
vt 0.8007 0.7298
vt 0.9550 0.2656
vt 0.9550 0.6492
vt 0.2700 0.8174
vt 0.3563 0.8116
vt 0.3232 0.7298
vt 0.4555 0.7298
vt 0.4224 0.8116
vt 0.5087 0.8174
vt 0.0001 0.6492
vt 0.0001 0.2656
vt 0.0547 0.7324
vt 0.0079 0.7324
vt 0.0313 0.8174
vn -0.6332 0.4451 -0.6332
vn -0.7071 0.0000 0.7071
vn 0.2915 -0.9111 0.2915
vn -0.6332 0.4451 0.6332
vn -0.2915 -0.9111 0.2915
vn 0.0000 0.0000 -1.0000
vn 0.7071 0.0000 0.7071
vn 0.0000 0.0000 1.0000
vn 0.4173 0.8072 0.4173
vn 0.0000 0.7902 0.6128
vn 0.0000 -0.9524 0.3048
vn 0.6332 0.4451 0.6332
vn 0.0000 0.3886 0.9214
vn -0.7071 0.0000 -0.7071
vn 0.0000 0.3886 -0.9214
vn 0.0000 -0.9524 -0.3048
vn 0.0000 -1.0000 0.0000
vn -0.2915 -0.9111 -0.2915
vn -0.3048 -0.9524 0.0000
vn 0.0000 0.7902 -0.6128
vn 0.0000 1.0000 0.0000
vn 0.6128 0.7902 0.0000
vn -1.0000 0.0000 0.0000
vn 1.0000 0.0000 0.0000
vn -0.4173 0.8072 -0.4173
vn -0.6128 0.7902 0.0000
vn 0.3048 -0.9524 0.0000
vn 0.9214 0.3886 0.0000
vn -0.4173 0.8072 0.4173
vn -0.9214 0.3886 0.0000
vn 0.7071 0.0000 -0.7071
vn 0.6332 0.4451 -0.6332
vn 0.4173 0.8072 -0.4173
vn 0.2915 -0.9111 -0.2915
usemtl None
s off
f 19/1/1 6/2/1 14/3/1 24/4/1
f 23/5/2 17/6/2 8/7/2 13/8/2
f 32/9/3 1/10/3 9/11/3
f 23/5/4 13/8/4 11/12/4 18/13/4
f 8/14/5 17/15/5 30/16/5
f 5/17/6 14/3/6 15/18/6 4/19/6
f 1/10/7 3/20/7 12/21/7 9/22/7
f 9/22/8 12/21/8 13/8/8 8/7/8
f 2/23/9 26/24/9 10/25/9
f 26/26/10 28/27/10 11/28/10 10/29/10
f 30/16/11 32/9/11 9/11/11 8/14/11
f 3/20/12 2/23/12 10/25/12 12/21/12
f 12/21/13 10/29/13 11/28/13 13/8/13
f 16/30/14 24/4/14 14/3/14 5/17/14
f 14/3/15 6/31/15 7/32/15 15/18/15
f 5/33/16 4/34/16 31/35/16 29/36/16
f 29/36/17 31/35/17 32/9/17 30/16/17
f 16/37/18 5/33/18 29/36/18
f 16/37/19 29/36/19 30/16/19 17/15/19
f 7/32/20 6/31/20 27/38/20 25/39/20
f 25/40/21 27/41/21 28/42/21 26/43/21
f 21/44/22 25/40/22 26/43/22 2/45/22
f 17/6/23 23/5/23 24/4/23 16/30/23
f 20/46/24 22/47/24 3/20/24 1/10/24
f 19/1/25 27/48/25 6/2/25
f 27/49/26 19/50/26 18/51/26 28/52/26
f 31/35/27 20/46/27 1/10/27 32/9/27
f 22/47/28 21/44/28 2/45/28 3/20/28
f 28/53/29 18/13/29 11/12/29
f 23/5/30 18/51/30 19/50/30 24/4/30
f 4/19/31 15/18/31 22/54/31 20/55/31
f 15/18/32 7/56/32 21/57/32 22/54/32
f 25/58/33 21/57/33 7/56/33
f 31/35/34 4/34/34 20/46/34
